STARTFONT 2.1
FONT -FontForge-Fredoka One-Book-R-Normal--24-240-72-72-P-138-ISO10646-1
SIZE 24 72 72
FONTBOUNDINGBOX 31 29 -3 -6
COMMENT "Generated by fontforge, http://fontforge.sourceforge.net"
COMMENT "Copyright (c) 2011 Milena B Brandao (milenabbrandao@gmail.com), with Reserved Font Name "Fredoka""
STARTPROPERTIES 39
FOUNDRY "FontForge"
FAMILY_NAME "Fredoka One"
WEIGHT_NAME "Book"
SLANT "R"
SETWIDTH_NAME "Normal"
ADD_STYLE_NAME ""
PIXEL_SIZE 24
POINT_SIZE 240
RESOLUTION_X 72
RESOLUTION_Y 72
SPACING "P"
AVERAGE_WIDTH 138
CHARSET_REGISTRY "ISO10646"
CHARSET_ENCODING "1"
FONTNAME_REGISTRY ""
CHARSET_COLLECTIONS "ISO10646-1"
FONT_NAME "FredokaOne-Regular"
FACE_NAME "Fredoka One"
COPYRIGHT "Copyright (c) 2011 Milena B Brandao (milenabbrandao@gmail.com), with Reserved Font Name "Fredoka""
FONT_VERSION "1.001"
FONT_ASCENT 19
FONT_DESCENT 5
UNDERLINE_POSITION -2
UNDERLINE_THICKNESS 2
X_HEIGHT 12
CAP_HEIGHT 17
RAW_ASCENT 800
RAW_DESCENT 200
NORM_SPACE 6
RELATIVE_WEIGHT 40
RELATIVE_SETWIDTH 50
SUPERSCRIPT_X 0
SUPERSCRIPT_Y 11
SUPERSCRIPT_SIZE 15
SUBSCRIPT_X 0
SUBSCRIPT_Y 3
SUBSCRIPT_SIZE 15
AVG_LOWERCASE_WIDTH 137
AVG_UPPERCASE_WIDTH 163
ENDPROPERTIES
CHARS 235
STARTCHAR space
ENCODING 32
SWIDTH 253 0
DWIDTH 6 0
BBX 1 1 0 0
BITMAP
00
ENDCHAR
STARTCHAR exclam
ENCODING 33
SWIDTH 267 0
DWIDTH 6 0
BBX 4 18 1 0
BITMAP
70
F0
F0
F0
F0
F0
F0
F0
F0
F0
F0
70
00
00
F0
F0
F0
F0
ENDCHAR
STARTCHAR quotedbl
ENCODING 34
SWIDTH 429 0
DWIDTH 10 0
BBX 9 9 1 9
BITMAP
4200
E780
E780
E780
E780
E700
E700
E300
4200
ENDCHAR
STARTCHAR numbersign
ENCODING 35
SWIDTH 749 0
DWIDTH 18 0
BBX 18 18 0 0
BITMAP
030600
078F00
078F00
070E00
070E00
3FFFC0
7FFFC0
7FFF80
0F1E00
0E1C00
0E1C00
7FFF80
FFFF80
FFFF00
1E3C00
1C3800
1C3800
1C3800
ENDCHAR
STARTCHAR dollar
ENCODING 36
SWIDTH 475 0
DWIDTH 11 0
BBX 10 21 1 -2
BITMAP
0800
1C00
1C00
1C00
7F00
FF80
FF80
E100
F000
FE00
7F80
1FC0
03C0
E3C0
F7C0
FF80
7F00
1E00
1C00
1C00
0C00
ENDCHAR
STARTCHAR percent
ENCODING 37
SWIDTH 838 0
DWIDTH 20 0
BBX 18 20 1 -1
BITMAP
000400
180E00
7E0C00
FF1C00
E71800
E73800
E73000
FF7000
7E6000
7EE000
00CF00
01DF80
01BFC0
0339C0
0338C0
0639C0
0E3FC0
0C1F80
1C0F00
080000
ENDCHAR
STARTCHAR ampersand
ENCODING 38
SWIDTH 748 0
DWIDTH 18 0
BBX 16 18 1 0
BITMAP
1FC0
3FE0
3FE0
78F0
79F0
3BE0
3FE0
3FC0
3F00
7F0E
FF9E
FFDE
F7FE
F3FC
F9FF
FFFF
7FFF
3F8F
ENDCHAR
STARTCHAR quotesingle
ENCODING 39
SWIDTH 208 0
DWIDTH 5 0
BBX 3 9 1 9
BITMAP
40
E0
E0
E0
E0
E0
E0
E0
40
ENDCHAR
STARTCHAR parenleft
ENCODING 40
SWIDTH 384 0
DWIDTH 9 0
BBX 8 24 1 -5
BITMAP
02
1F
3F
3E
78
70
70
F0
F0
E0
E0
E0
E0
E0
E0
E0
F0
F0
70
70
78
3E
1F
0F
ENDCHAR
STARTCHAR parenright
ENCODING 41
SWIDTH 384 0
DWIDTH 9 0
BBX 9 24 0 -5
BITMAP
4000
F800
FC00
7C00
1E00
0E00
0F00
0F00
0700
0700
0700
0700
0780
0700
0700
0700
0700
0F00
0F00
0E00
1E00
7C00
FC00
F800
ENDCHAR
STARTCHAR asterisk
ENCODING 42
SWIDTH 503 0
DWIDTH 12 0
BBX 12 11 0 7
BITMAP
0600
0F00
0F00
7FE0
FFF0
FFF0
7FC0
3FC0
3FC0
3FC0
1980
ENDCHAR
STARTCHAR plus
ENCODING 43
SWIDTH 527 0
DWIDTH 13 0
BBX 11 11 1 1
BITMAP
0E00
1E00
1E00
1E00
FFE0
FFE0
FFE0
1E00
1E00
1E00
0E00
ENDCHAR
STARTCHAR comma
ENCODING 44
SWIDTH 238 0
DWIDTH 6 0
BBX 4 8 1 -4
BITMAP
F0
F0
F0
F0
70
60
E0
80
ENDCHAR
STARTCHAR hyphen
ENCODING 45
SWIDTH 433 0
DWIDTH 10 0
BBX 9 4 1 3
BITMAP
FF80
FF80
FF80
FF00
ENDCHAR
STARTCHAR period
ENCODING 46
SWIDTH 237 0
DWIDTH 6 0
BBX 4 4 1 0
BITMAP
F0
F0
F0
F0
ENDCHAR
STARTCHAR slash
ENCODING 47
SWIDTH 526 0
DWIDTH 13 0
BBX 12 20 0 -1
BITMAP
0060
00F0
00F0
01F0
01E0
03E0
03C0
07C0
0780
0F80
0F00
0F00
1E00
1E00
3C00
3C00
7C00
7800
F800
7000
ENDCHAR
STARTCHAR zero
ENCODING 48
SWIDTH 608 0
DWIDTH 15 0
BBX 13 18 1 0
BITMAP
0F80
3FC0
7FE0
7FF0
FDF0
F8F8
F0F8
F078
F078
F078
F078
F078
F0F8
F8F0
7FF0
7FF0
3FE0
1FC0
ENDCHAR
STARTCHAR one
ENCODING 49
SWIDTH 407 0
DWIDTH 10 0
BBX 9 18 0 0
BITMAP
0300
0780
0F80
3F80
7F80
FF80
FF80
7780
0780
0780
0780
0780
0780
0780
0780
0780
0780
0700
ENDCHAR
STARTCHAR two
ENCODING 50
SWIDTH 609 0
DWIDTH 15 0
BBX 13 18 1 0
BITMAP
0F00
3FC0
7FE0
FFF0
F9F0
F0F0
F0F8
F0F8
E1F0
03F0
07E0
1FC0
7F80
FE00
FFF8
FFF8
FFF8
FFF8
ENDCHAR
STARTCHAR three
ENCODING 51
SWIDTH 608 0
DWIDTH 15 0
BBX 13 18 1 0
BITMAP
0F00
3FE0
7FE0
7FF0
F9F0
70F8
21F8
07F0
0FE0
0FF0
07F0
60F8
F078
F0F8
FFF8
FFF0
7FE0
1FC0
ENDCHAR
STARTCHAR four
ENCODING 52
SWIDTH 592 0
DWIDTH 14 0
BBX 13 18 0 0
BITMAP
1830
1E78
3E78
3C78
3C78
3C78
7C78
7878
7878
7FF8
FFF8
FFF8
7FF8
0078
0078
0078
0078
0078
ENDCHAR
STARTCHAR five
ENCODING 53
SWIDTH 530 0
DWIDTH 13 0
BBX 12 18 0 0
BITMAP
1FE0
3FF0
3FF0
7FF0
7FE0
7800
7E00
7FC0
7FE0
7FE0
7FF0
10F0
00F0
71F0
7FF0
FFE0
7FC0
1F80
ENDCHAR
STARTCHAR six
ENCODING 54
SWIDTH 560 0
DWIDTH 13 0
BBX 12 18 1 0
BITMAP
00C0
07E0
1FE0
3FE0
7FE0
7C00
F800
F000
FF80
FFE0
FFE0
F9F0
F0F0
F1F0
FFF0
7FE0
7FC0
1F80
ENDCHAR
STARTCHAR seven
ENCODING 55
SWIDTH 561 0
DWIDTH 13 0
BBX 13 18 0 0
BITMAP
3FE0
FFF8
FFF8
FFF8
7FF8
00F0
01F0
03E0
03E0
07C0
0F80
0F80
0F00
1F00
1E00
1E00
1E00
1E00
ENDCHAR
STARTCHAR eight
ENCODING 56
SWIDTH 582 0
DWIDTH 14 0
BBX 12 18 1 0
BITMAP
0F00
3FC0
7FE0
FFE0
F9F0
F0F0
F9F0
7FE0
7FC0
7FE0
FFF0
F0F0
F0F0
F0F0
FFF0
FFF0
7FE0
1F80
ENDCHAR
STARTCHAR nine
ENCODING 57
SWIDTH 560 0
DWIDTH 13 0
BBX 12 18 1 0
BITMAP
1F00
3FC0
7FE0
FFE0
F1E0
F1F0
F1F0
FFF0
FFF0
7FF0
1FE0
01E0
03E0
0FC0
FFC0
FF80
FF00
F800
ENDCHAR
STARTCHAR colon
ENCODING 58
SWIDTH 238 0
DWIDTH 6 0
BBX 4 12 1 0
BITMAP
F0
F0
F0
F0
00
00
00
00
F0
F0
F0
F0
ENDCHAR
STARTCHAR semicolon
ENCODING 59
SWIDTH 237 0
DWIDTH 6 0
BBX 4 16 1 -4
BITMAP
F0
F0
F0
F0
00
00
00
00
F0
F0
F0
F0
70
60
E0
80
ENDCHAR
STARTCHAR less
ENCODING 60
SWIDTH 627 0
DWIDTH 15 0
BBX 15 16 0 0
BITMAP
001C
007E
01FC
03F8
0FF0
3FC0
7F00
FE00
FE00
7F80
1FE0
07F0
01FC
00FE
003C
000C
ENDCHAR
STARTCHAR equal
ENCODING 61
SWIDTH 478 0
DWIDTH 11 0
BBX 10 9 1 1
BITMAP
FF80
FFC0
FFC0
FFC0
0000
FF80
FFC0
FFC0
FFC0
ENDCHAR
STARTCHAR greater
ENCODING 62
SWIDTH 627 0
DWIDTH 15 0
BBX 15 16 0 0
BITMAP
7000
FC00
7F00
3F80
1FE0
07F8
01FC
007E
00FE
03FC
0FF0
1FC0
7F80
FE00
7800
6000
ENDCHAR
STARTCHAR question
ENCODING 63
SWIDTH 512 0
DWIDTH 12 0
BBX 12 18 0 0
BITMAP
1F80
3FC0
7FE0
7FE0
F0F0
70F0
01F0
03E0
0FE0
0F80
0F00
0600
0000
0000
0F00
0F00
0F00
0F00
ENDCHAR
STARTCHAR at
ENCODING 64
SWIDTH 908 0
DWIDTH 22 0
BBX 20 19 1 -3
BITMAP
03F800
0FFF00
1FFF80
3E07C0
7801E0
F1FCE0
E3FC70
E7FC70
E71C70
E71C70
E7FC70
E7F870
E3F8F0
F1B8E0
703FE0
7C1FC0
3FCF00
1FC000
07C000
ENDCHAR
STARTCHAR A
ENCODING 65
SWIDTH 765 0
DWIDTH 18 0
BBX 18 18 0 0
BITMAP
004000
01E000
01F000
03F000
03F000
07F800
07F800
0FFC00
0FBC00
1F3E00
1F1E00
3FFF00
3FFF00
7FFF80
7C0780
7807C0
F803C0
700380
ENDCHAR
STARTCHAR B
ENCODING 66
SWIDTH 646 0
DWIDTH 16 0
BBX 14 18 1 0
BITMAP
7F80
FFE0
FFF0
FFF8
FFF8
F078
F078
F3F8
F3F8
F3F8
F0FC
F03C
F03C
F07C
FFF8
FFF8
FFF0
FFE0
ENDCHAR
STARTCHAR C
ENCODING 67
SWIDTH 679 0
DWIDTH 16 0
BBX 15 18 1 0
BITMAP
01C0
0FF8
1FFC
3FFE
7FFC
FC08
F800
F000
F000
F000
F000
F000
F800
7E1C
7FFC
3FFE
1FFC
07F0
ENDCHAR
STARTCHAR D
ENCODING 68
SWIDTH 704 0
DWIDTH 17 0
BBX 15 18 1 0
BITMAP
7F00
FFE0
FFF0
FFF8
FFFC
F07E
F03E
F01E
F01E
F01E
F01E
F03E
F03E
F0FC
FFFC
FFF8
FFE0
FF80
ENDCHAR
STARTCHAR E
ENCODING 69
SWIDTH 638 0
DWIDTH 15 0
BBX 14 18 1 0
BITMAP
3FF8
FFFC
FFFC
FFFC
FFF8
F000
F000
FFE0
FFE0
FFE0
FFE0
F000
F000
F000
FFF8
FFFC
FFFC
FFF8
ENDCHAR
STARTCHAR F
ENCODING 70
SWIDTH 637 0
DWIDTH 15 0
BBX 14 18 1 0
BITMAP
3FF8
FFFC
FFFC
FFFC
FFF8
F000
F000
FFE0
FFE0
FFE0
FFE0
F000
F000
F000
F000
F000
F000
F000
ENDCHAR
STARTCHAR G
ENCODING 71
SWIDTH 714 0
DWIDTH 17 0
BBX 15 18 1 0
BITMAP
03E0
0FF8
3FFC
7FFE
7F3C
F808
F800
F07C
F1FE
F1FE
F0FE
F01E
F81E
7E1E
7FFE
3FFE
1FFC
07F0
ENDCHAR
STARTCHAR H
ENCODING 72
SWIDTH 699 0
DWIDTH 17 0
BBX 15 18 1 0
BITMAP
6008
F01E
F01E
F01E
F01E
F01E
F01E
FFFE
FFFE
FFFE
FFFE
F01E
F01E
F01E
F01E
F01E
F01E
F01C
ENDCHAR
STARTCHAR I
ENCODING 73
SWIDTH 257 0
DWIDTH 6 0
BBX 4 18 1 0
BITMAP
60
F0
F0
F0
F0
F0
F0
F0
F0
F0
F0
F0
F0
F0
F0
F0
F0
F0
ENDCHAR
STARTCHAR J
ENCODING 74
SWIDTH 549 0
DWIDTH 13 0
BBX 12 18 0 0
BITMAP
0020
00F0
00F0
00F0
00F0
00F0
00F0
00F0
00F0
00F0
00F0
00F0
20F0
71F0
FFF0
7FE0
7FC0
1F80
ENDCHAR
STARTCHAR K
ENCODING 75
SWIDTH 639 0
DWIDTH 15 0
BBX 14 18 1 0
BITMAP
6030
F078
F0FC
F1F8
F1F0
F3E0
F7C0
FF80
FF00
FF00
FF80
FFC0
F7E0
F3F0
F1F8
F0FC
F078
F030
ENDCHAR
STARTCHAR L
ENCODING 76
SWIDTH 587 0
DWIDTH 14 0
BBX 12 18 1 0
BITMAP
6000
F000
F000
F000
F000
F000
F000
F000
F000
F000
F000
F000
F000
F000
FFE0
FFF0
FFF0
FFF0
ENDCHAR
STARTCHAR M
ENCODING 77
SWIDTH 870 0
DWIDTH 21 0
BBX 19 18 1 0
BITMAP
200080
F001E0
F803E0
FC07E0
FE0FE0
FE1FE0
FF1FE0
FFBFE0
F7FDE0
F7F9E0
F3F9E0
F1F1E0
F0E1E0
F001E0
F001E0
F001E0
F001E0
F001C0
ENDCHAR
STARTCHAR N
ENCODING 78
SWIDTH 720 0
DWIDTH 17 0
BBX 15 18 1 0
BITMAP
200C
F01E
F81E
FC1E
FE1E
FE1E
FF1E
FF9E
F7DE
F7DE
F3FE
F1FE
F0FE
F0FE
F07E
F03E
F01E
F01E
ENDCHAR
STARTCHAR O
ENCODING 79
SWIDTH 775 0
DWIDTH 19 0
BBX 17 18 1 0
BITMAP
03C000
0FF800
3FFC00
3FFE00
7F7F00
FC1F00
F80F80
F00F80
F00780
F00780
F00780
F00F80
F80F00
7C3F00
7FFE00
3FFE00
1FFC00
07F000
ENDCHAR
STARTCHAR P
ENCODING 80
SWIDTH 632 0
DWIDTH 15 0
BBX 14 18 1 0
BITMAP
7F00
FFE0
FFF0
FFF8
FFF8
F078
F07C
F07C
F0F8
FFF8
FFF0
FFE0
FFC0
F000
F000
F000
F000
F000
ENDCHAR
STARTCHAR Q
ENCODING 81
SWIDTH 830 0
DWIDTH 20 0
BBX 19 18 1 0
BITMAP
03C000
0FF800
3FFC00
3FFE00
7F7F00
FC1F00
F80F80
F00F80
F00780
F00780
F00780
F00F80
F80F00
7C3F80
7FFFC0
3FFFE0
1FFFC0
07F1C0
ENDCHAR
STARTCHAR R
ENCODING 82
SWIDTH 631 0
DWIDTH 15 0
BBX 14 18 1 0
BITMAP
7F00
FFE0
FFF0
FFF8
FFF8
F078
F07C
F07C
F0F8
FFF8
FFF0
FFF0
FFF0
F0F8
F078
F07C
F07C
F038
ENDCHAR
STARTCHAR S
ENCODING 83
SWIDTH 583 0
DWIDTH 14 0
BBX 12 18 1 0
BITMAP
1F00
3FC0
7FE0
FFE0
F9E0
F000
F800
FF00
7FE0
3FF0
0FF0
01F0
60F0
F0F0
FFF0
FFF0
7FE0
1F80
ENDCHAR
STARTCHAR T
ENCODING 84
SWIDTH 731 0
DWIDTH 18 0
BBX 17 18 0 0
BITMAP
7FFF00
FFFF80
FFFF80
7FFF80
01E000
01E000
01E000
01E000
01E000
01E000
01E000
01E000
01E000
01E000
01E000
01E000
01E000
01C000
ENDCHAR
STARTCHAR U
ENCODING 85
SWIDTH 726 0
DWIDTH 17 0
BBX 15 18 1 0
BITMAP
600C
F01E
F01E
F01E
F01E
F01E
F01E
F01E
F01E
F01E
F01E
F81E
F83E
7C3E
7FFC
3FFC
1FF8
0FE0
ENDCHAR
STARTCHAR V
ENCODING 86
SWIDTH 783 0
DWIDTH 19 0
BBX 18 18 0 0
BITMAP
300100
7803C0
F803C0
7807C0
7C07C0
3C0F80
3E0F80
1E0F00
1F1F00
0F1E00
0FBE00
07BC00
07FC00
03F800
03F800
01F000
01F000
00E000
ENDCHAR
STARTCHAR W
ENCODING 87
SWIDTH 999 0
DWIDTH 24 0
BBX 24 18 0 0
BITMAP
30100C
783C1E
F83C1F
787E1E
7C7E3E
7C7E3E
3CFF3C
3CFF7C
3EFF7C
1FFFF8
1FE7F8
1FE7F0
0FE7F0
0FC3F0
07C3E0
07C3E0
0781E0
0381C0
ENDCHAR
STARTCHAR X
ENCODING 88
SWIDTH 741 0
DWIDTH 18 0
BBX 17 18 0 0
BITMAP
300300
780780
FC0F80
7E1F80
3E3F00
1F7E00
0FFC00
07F800
07F000
03F000
07F800
0FFC00
1FFE00
3F3F00
7E1F80
FC0F80
780780
700300
ENDCHAR
STARTCHAR Y
ENCODING 89
SWIDTH 686 0
DWIDTH 16 0
BBX 16 18 0 0
BITMAP
3004
780F
F81F
7C1F
3C3E
3E7C
1F7C
0FF8
0FF0
07F0
03E0
03C0
03C0
03C0
03C0
03C0
03C0
03C0
ENDCHAR
STARTCHAR Z
ENCODING 90
SWIDTH 643 0
DWIDTH 15 0
BBX 14 18 1 0
BITMAP
7FF0
FFF8
FFFC
FFF8
7FF8
01F0
03E0
07C0
0FC0
0F80
1F00
3F00
3E00
7C00
FFF8
FFFC
FFFC
FFF8
ENDCHAR
STARTCHAR bracketleft
ENCODING 91
SWIDTH 348 0
DWIDTH 8 0
BBX 7 24 1 -5
BITMAP
3C
FE
FE
FE
F0
F0
F0
F0
F0
F0
F0
F0
F0
F0
F0
F0
F0
F0
F0
F0
F0
FE
FE
FE
ENDCHAR
STARTCHAR backslash
ENCODING 92
SWIDTH 528 0
DWIDTH 13 0
BBX 12 20 0 -1
BITMAP
3000
7000
F800
7800
7C00
3C00
3E00
1E00
1F00
0F00
0F80
0780
07C0
03C0
03E0
01E0
01F0
00F0
00F0
0070
ENDCHAR
STARTCHAR bracketright
ENCODING 93
SWIDTH 348 0
DWIDTH 8 0
BBX 7 24 0 -5
BITMAP
7C
FE
FE
7E
1E
1E
1E
1E
1E
1E
1E
1E
1E
1E
1E
1E
1E
1E
1E
1E
1E
7E
FE
FE
ENDCHAR
STARTCHAR asciicircum
ENCODING 94
SWIDTH 526 0
DWIDTH 13 0
BBX 11 7 1 6
BITMAP
0C00
1E00
3F00
7F80
FBC0
F1E0
60C0
ENDCHAR
STARTCHAR underscore
ENCODING 95
SWIDTH 826 0
DWIDTH 20 0
BBX 19 3 0 -5
BITMAP
7FFFE0
FFFFE0
FFFFE0
ENDCHAR
STARTCHAR grave
ENCODING 96
SWIDTH 482 0
DWIDTH 12 0
BBX 7 5 2 14
BITMAP
40
78
FE
7E
1E
ENDCHAR
STARTCHAR a
ENCODING 97
SWIDTH 596 0
DWIDTH 14 0
BBX 12 13 1 0
BITMAP
0460
3FF0
7FF0
FFF0
FFF0
F0F0
F0F0
F0F0
F9F0
FFF0
7FF0
3FF0
1E70
ENDCHAR
STARTCHAR b
ENCODING 98
SWIDTH 592 0
DWIDTH 14 0
BBX 13 19 1 0
BITMAP
6000
F000
F000
F000
F000
F000
F200
FFC0
FFE0
FFF0
FFF0
F8F0
F0F8
F0F8
F9F0
FFF0
FFE0
FFC0
F780
ENDCHAR
STARTCHAR c
ENCODING 99
SWIDTH 517 0
DWIDTH 12 0
BBX 11 13 1 0
BITMAP
0F00
3FC0
7FE0
FFE0
FFC0
F000
F000
F000
F9C0
FFC0
7FE0
3FC0
1F80
ENDCHAR
STARTCHAR d
ENCODING 100
SWIDTH 598 0
DWIDTH 14 0
BBX 12 19 1 0
BITMAP
0020
00F0
00F0
00F0
00F0
00F0
04F0
3FF0
7FF0
7FF0
FFF0
F0F0
F0F0
F0F0
F9F0
FFF0
7FF0
3FF0
1E70
ENDCHAR
STARTCHAR e
ENCODING 101
SWIDTH 573 0
DWIDTH 14 0
BBX 12 13 1 0
BITMAP
0F80
3FE0
7FE0
FFF0
F8F0
F0F0
FFF0
FFE0
F000
FCE0
7FE0
7FF0
1FE0
ENDCHAR
STARTCHAR f
ENCODING 102
SWIDTH 450 0
DWIDTH 11 0
BBX 10 19 0 0
BITMAP
0180
0FC0
1FC0
1FC0
1F80
1E00
1F80
FFC0
FFC0
FFC0
3F80
1E00
1E00
1E00
1E00
1E00
1E00
1E00
1C00
ENDCHAR
STARTCHAR g
ENCODING 103
SWIDTH 585 0
DWIDTH 14 0
BBX 12 18 1 -5
BITMAP
0460
3FF0
7FF0
FFF0
FBF0
F0F0
F0F0
F0F0
FFF0
FFF0
7FF0
3FF0
04F0
20F0
7BF0
7FE0
7FC0
3F80
ENDCHAR
STARTCHAR h
ENCODING 104
SWIDTH 605 0
DWIDTH 15 0
BBX 13 19 1 0
BITMAP
6000
F000
F000
F000
F000
F000
F200
FFC0
FFE0
FFF0
FFF0
F8F0
F0F8
F0F8
F0F8
F0F8
F0F8
F0F8
F070
ENDCHAR
STARTCHAR i
ENCODING 105
SWIDTH 255 0
DWIDTH 6 0
BBX 4 19 1 0
BITMAP
60
F0
F0
F0
60
00
60
F0
F0
F0
F0
F0
F0
F0
F0
F0
F0
F0
F0
ENDCHAR
STARTCHAR j
ENCODING 106
SWIDTH 252 0
DWIDTH 6 0
BBX 8 24 -3 -5
BITMAP
02
0F
0F
0F
06
00
06
0F
0F
0F
0F
0F
0F
0F
0F
0F
0F
0F
0F
0F
7F
FE
FC
F8
ENDCHAR
STARTCHAR k
ENCODING 107
SWIDTH 536 0
DWIDTH 13 0
BBX 12 19 1 0
BITMAP
4000
F000
F000
F000
F000
F000
F000
F1C0
F3C0
F7E0
FFC0
FF80
FF00
FF00
FFC0
F7E0
F3F0
F1E0
F0C0
ENDCHAR
STARTCHAR l
ENCODING 108
SWIDTH 327 0
DWIDTH 8 0
BBX 6 19 1 0
BITMAP
60
F0
F0
F0
F0
F0
F0
F0
F0
F0
F0
F0
F0
F0
F0
FC
FC
7C
3C
ENDCHAR
STARTCHAR m
ENCODING 109
SWIDTH 851 0
DWIDTH 20 0
BBX 18 13 1 0
BITMAP
430600
FFDF80
FFFFC0
FFFFC0
FFFFC0
F1E3C0
F1E3C0
F1E3C0
F1E3C0
F1E3C0
F1E3C0
F1E3C0
F1E1C0
ENDCHAR
STARTCHAR n
ENCODING 110
SWIDTH 606 0
DWIDTH 15 0
BBX 13 13 1 0
BITMAP
6300
FFC0
FFE0
FFF0
FFF0
F8F0
F0F8
F0F8
F0F8
F0F8
F0F8
F0F8
F070
ENDCHAR
STARTCHAR o
ENCODING 111
SWIDTH 600 0
DWIDTH 14 0
BBX 13 13 1 0
BITMAP
0F80
3FC0
7FE0
FFF0
F9F0
F0F8
F078
F0F8
F8F8
FFF0
7FF0
3FE0
1F80
ENDCHAR
STARTCHAR p
ENCODING 112
SWIDTH 582 0
DWIDTH 14 0
BBX 12 18 1 -5
BITMAP
6200
FFC0
FFE0
FFF0
FFF0
F0F0
F0F0
F0F0
FDF0
FFF0
FFE0
FFC0
F300
F000
F000
F000
F000
F000
ENDCHAR
STARTCHAR q
ENCODING 113
SWIDTH 582 0
DWIDTH 14 0
BBX 12 18 1 -5
BITMAP
0460
3FF0
7FF0
FFF0
FFF0
F1F0
F0F0
F0F0
FBF0
FFF0
7FF0
3FF0
0CF0
00F0
00F0
00F0
00F0
00F0
ENDCHAR
STARTCHAR r
ENCODING 114
SWIDTH 457 0
DWIDTH 11 0
BBX 10 13 1 0
BITMAP
6380
FFC0
FFC0
FF80
F980
F000
F000
F000
F000
F000
F000
F000
F000
ENDCHAR
STARTCHAR s
ENCODING 115
SWIDTH 489 0
DWIDTH 12 0
BBX 10 13 1 0
BITMAP
3F00
7FC0
FF80
FB80
F000
FF00
7F80
3FC0
0FC0
F3C0
FFC0
FF80
7F00
ENDCHAR
STARTCHAR t
ENCODING 116
SWIDTH 449 0
DWIDTH 11 0
BBX 10 17 0 0
BITMAP
1C00
1E00
1E00
1E00
7F80
FFC0
FFC0
FFC0
7F80
1E00
1E00
1E00
1E00
1F80
1FC0
1FC0
0780
ENDCHAR
STARTCHAR u
ENCODING 117
SWIDTH 606 0
DWIDTH 15 0
BBX 13 13 1 0
BITMAP
6070
F0F8
F0F8
F0F8
F0F8
F0F8
F0F8
F0F8
F9F8
FFF8
7FF8
3FF8
1E70
ENDCHAR
STARTCHAR v
ENCODING 118
SWIDTH 638 0
DWIDTH 15 0
BBX 15 13 0 0
BITMAP
3018
781E
F83E
7C3E
7C7C
3E78
1EF8
1FF0
0FF0
0FE0
07C0
07C0
0380
ENDCHAR
STARTCHAR w
ENCODING 119
SWIDTH 793 0
DWIDTH 19 0
BBX 19 13 0 0
BITMAP
304180
F0E1C0
F9F3E0
79F3C0
7DFFC0
3FFF80
3FFF80
3FFF80
1FBF00
1FBF00
0F1E00
0F1E00
060C00
ENDCHAR
STARTCHAR x
ENCODING 120
SWIDTH 567 0
DWIDTH 14 0
BBX 13 13 0 0
BITMAP
3030
7878
FCF8
7FF8
3FF0
1FE0
0FC0
1FE0
3FF0
7FF8
FCF8
7878
7030
ENDCHAR
STARTCHAR y
ENCODING 121
SWIDTH 604 0
DWIDTH 15 0
BBX 14 19 0 -6
BITMAP
3018
783C
F83C
7C7C
3C78
3EF8
1FF0
1FF0
0FE0
07E0
07E0
03C0
07C0
0780
0F80
0F00
1F00
0E00
0600
ENDCHAR
STARTCHAR z
ENCODING 122
SWIDTH 586 0
DWIDTH 14 0
BBX 12 13 1 0
BITMAP
7FE0
FFF0
FFF0
FFF0
3FE0
07C0
1F80
3F00
7E00
FFF0
FFF0
FFF0
FFF0
ENDCHAR
STARTCHAR braceleft
ENCODING 123
SWIDTH 381 0
DWIDTH 9 0
BBX 9 24 0 -5
BITMAP
0300
0F80
0F80
1F00
1E00
1E00
1E00
1E00
1E00
1E00
3C00
FC00
F800
7C00
1C00
1E00
1E00
1E00
1E00
1E00
1E00
1F80
0F80
0780
ENDCHAR
STARTCHAR bar
ENCODING 124
SWIDTH 217 0
DWIDTH 5 0
BBX 3 25 1 -6
BITMAP
40
E0
E0
E0
E0
E0
E0
E0
E0
E0
E0
E0
E0
E0
E0
E0
E0
E0
E0
E0
E0
E0
E0
E0
40
ENDCHAR
STARTCHAR braceright
ENCODING 125
SWIDTH 381 0
DWIDTH 9 0
BBX 9 24 0 -5
BITMAP
6000
F800
FC00
7C00
1C00
1C00
1C00
1C00
1C00
1C00
1E00
1F80
0F80
1F80
1C00
1C00
1C00
1C00
1C00
1C00
1C00
7C00
F800
F800
ENDCHAR
STARTCHAR asciitilde
ENCODING 126
SWIDTH 651 0
DWIDTH 16 0
BBX 13 5 1 4
BITMAP
3E70
7FF8
FFF8
FFF0
73E0
ENDCHAR
STARTCHAR exclamdown
ENCODING 161
SWIDTH 268 0
DWIDTH 6 0
BBX 4 17 1 -5
BITMAP
F0
F0
F0
F0
00
00
F0
F0
F0
F0
F0
F0
F0
F0
F0
F0
F0
ENDCHAR
STARTCHAR cent
ENCODING 162
SWIDTH 434 0
DWIDTH 10 0
BBX 9 18 1 -2
BITMAP
0C00
1C00
1C00
1C00
3E00
7F80
FF80
FF00
E000
E000
F300
FF80
7F80
3F00
1C00
1C00
1C00
0C00
ENDCHAR
STARTCHAR sterling
ENCODING 163
SWIDTH 675 0
DWIDTH 16 0
BBX 16 18 0 0
BITMAP
00C0
07FC
0FFE
1FFE
1F1E
1E0C
1E00
1C00
FFC0
FFC0
7FC0
1E00
1E00
1E00
1FFE
3FFF
3FFF
3FFF
ENDCHAR
STARTCHAR currency
ENCODING 164
SWIDTH 677 0
DWIDTH 16 0
BBX 15 19 1 0
BITMAP
4000
E01C
F03E
FFFC
7FF8
7FF8
7C7C
F03C
F03C
F01C
F01C
F03C
783C
7FF8
7FF8
FFFC
FFFC
E01E
400C
ENDCHAR
STARTCHAR yen
ENCODING 165
SWIDTH 677 0
DWIDTH 16 0
BBX 16 18 0 0
BITMAP
3004
700E
F81F
7C1E
7C3E
3E7C
1F7C
1FF8
0FF0
1FF8
1FFC
1FF8
03C0
03C0
1FFC
1FFC
03C0
03C0
ENDCHAR
STARTCHAR brokenbar
ENCODING 166
SWIDTH 215 0
DWIDTH 5 0
BBX 3 24 1 -5
BITMAP
40
E0
E0
E0
E0
E0
E0
E0
E0
E0
E0
00
00
40
E0
E0
E0
E0
E0
E0
E0
E0
E0
E0
ENDCHAR
STARTCHAR section
ENCODING 167
SWIDTH 560 0
DWIDTH 13 0
BBX 12 23 1 -5
BITMAP
3F80
7FE0
FFE0
FBC0
F080
F000
FE00
7FC0
7FE0
FFF0
F1F0
F0F0
F9F0
FFE0
7FE0
1FE0
03F0
40F0
F0F0
FBF0
FFE0
7FE0
3F80
ENDCHAR
STARTCHAR dieresis
ENCODING 168
SWIDTH 489 0
DWIDTH 12 0
BBX 11 5 1 14
BITMAP
6080
F1E0
F3E0
F3E0
61C0
ENDCHAR
STARTCHAR copyright
ENCODING 169
SWIDTH 711 0
DWIDTH 17 0
BBX 15 16 1 2
BITMAP
0FE0
3FF8
783C
E38E
CFE6
CFE6
DC06
DC06
DC06
DC46
CFE6
C7E6
610C
7C7C
3FF8
03C0
ENDCHAR
STARTCHAR ordfeminine
ENCODING 170
SWIDTH 445 0
DWIDTH 11 0
BBX 9 9 1 8
BITMAP
3B80
7F80
FF80
E780
E380
E780
FF80
7F80
3B00
ENDCHAR
STARTCHAR guillemotleft
ENCODING 171
SWIDTH 668 0
DWIDTH 16 0
BBX 16 13 0 0
BITMAP
0204
070E
0F1F
1F3E
3E7C
7CF8
F8F0
78F8
7E7C
3F3E
1F1F
0F0E
0606
ENDCHAR
STARTCHAR logicalnot
ENCODING 172
SWIDTH 526 0
DWIDTH 13 0
BBX 12 8 0 3
BITMAP
7FE0
FFF0
FFF0
FFF0
3FF0
0070
0070
0070
ENDCHAR
STARTCHAR registered
ENCODING 174
SWIDTH 711 0
DWIDTH 17 0
BBX 15 16 1 2
BITMAP
0FE0
3FF8
783C
E78E
CFE6
CFE6
CE66
CFE6
CFE6
CFE6
CEE6
CE66
600C
7C7C
3FF8
03C0
ENDCHAR
STARTCHAR degree
ENCODING 176
SWIDTH 407 0
DWIDTH 10 0
BBX 8 8 1 10
BITMAP
7E
FE
FF
C7
C7
FF
FE
3C
ENDCHAR
STARTCHAR plusminus
ENCODING 177
SWIDTH 505 0
DWIDTH 12 0
BBX 11 13 1 0
BITMAP
1E00
1E00
1E00
FFC0
FFE0
FFC0
1E00
1E00
0C00
0000
FFC0
FFC0
FFC0
ENDCHAR
STARTCHAR twosuperior
ENCODING 178
SWIDTH 455 0
DWIDTH 11 0
BBX 10 13 1 5
BITMAP
3E00
7F00
FF80
FF80
E380
E780
0F80
1F00
7E00
FF80
FFC0
FFC0
7F80
ENDCHAR
STARTCHAR threesuperior
ENCODING 179
SWIDTH 457 0
DWIDTH 11 0
BBX 9 13 1 5
BITMAP
3E00
7F00
FF80
F780
6380
1F80
1F00
1F80
E380
F780
FF80
7F00
3E00
ENDCHAR
STARTCHAR acute
ENCODING 180
SWIDTH 605 0
DWIDTH 15 0
BBX 7 5 4 14
BITMAP
04
3C
FE
FC
F0
ENDCHAR
STARTCHAR mu
ENCODING 181
SWIDTH 601 0
DWIDTH 14 0
BBX 12 18 1 -5
BITMAP
6070
F0F0
F0F0
F0F0
F0F0
F0F0
F0F0
F0F0
F9F0
FFF0
FFF0
FFF0
F670
F000
F000
F000
F000
F000
ENDCHAR
STARTCHAR paragraph
ENCODING 182
SWIDTH 614 0
DWIDTH 15 0
BBX 12 21 1 -6
BITMAP
3FF0
FFF0
FFF0
FE70
FE70
FE70
FE70
FE70
1E70
0E70
0E70
0E70
0E70
0E70
0E70
0E70
0E70
0E70
0E70
0E70
0420
ENDCHAR
STARTCHAR periodcentered
ENCODING 183
SWIDTH 237 0
DWIDTH 6 0
BBX 4 5 1 5
BITMAP
60
F0
F0
F0
60
ENDCHAR
STARTCHAR cedilla
ENCODING 184
SWIDTH 559 0
DWIDTH 13 0
BBX 5 6 4 -5
BITMAP
60
F0
58
78
F0
20
ENDCHAR
STARTCHAR onesuperior
ENCODING 185
SWIDTH 321 0
DWIDTH 8 0
BBX 7 13 0 5
BITMAP
0C
1E
3E
7E
FE
7E
1E
1E
1E
1E
1E
1E
0C
ENDCHAR
STARTCHAR ordmasculine
ENCODING 186
SWIDTH 439 0
DWIDTH 11 0
BBX 9 9 1 8
BITMAP
3C00
7F00
FF00
E380
E380
E380
FF80
7F00
3E00
ENDCHAR
STARTCHAR guillemotright
ENCODING 187
SWIDTH 669 0
DWIDTH 16 0
BBX 16 13 0 0
BITMAP
2040
70E0
F8F0
7CF8
3E7C
1F3E
0F9F
1F1E
3E3E
7C7C
F8F8
70F0
6060
ENDCHAR
STARTCHAR onequarter
ENCODING 188
SWIDTH 786 0
DWIDTH 19 0
BBX 16 20 1 -1
BITMAP
0018
3818
7838
F830
F870
3860
38E0
38C0
39C0
39BB
1B3B
033B
0673
0E73
0C7F
1C7F
1803
3803
3003
1000
ENDCHAR
STARTCHAR onehalf
ENCODING 189
SWIDTH 804 0
DWIDTH 19 0
BBX 17 20 1 -1
BITMAP
001800
381800
783800
F83000
F87000
386000
38E000
38C000
39C000
399E00
1B3F00
037F00
067300
0E7700
0C0F00
1C3E00
187F80
387F80
307F80
100000
ENDCHAR
STARTCHAR threequarters
ENCODING 190
SWIDTH 842 0
DWIDTH 20 0
BBX 18 20 1 -1
BITMAP
000400
3E0E00
7E0C00
671C00
271800
1E3000
1F3000
E76000
FFE000
7ECDC0
3DDDC0
019DC0
039DC0
0319C0
073FC0
063FC0
0E01C0
0C01C0
1C01C0
080000
ENDCHAR
STARTCHAR questiondown
ENCODING 191
SWIDTH 511 0
DWIDTH 12 0
BBX 11 18 1 -5
BITMAP
0C00
1E00
1F00
1E00
0E00
0000
0000
1E00
3E00
7E00
FC00
F000
E1C0
E1E0
FFE0
FFC0
7FC0
3F00
ENDCHAR
STARTCHAR Agrave
ENCODING 192
SWIDTH 765 0
DWIDTH 18 0
BBX 18 23 0 0
BITMAP
030000
07E000
07F000
03F000
006000
004000
01E000
01F000
03F000
03F000
07F800
07F800
0FFC00
0FBC00
1F3E00
1F1E00
3FFF00
3FFF00
7FFF80
7C0780
7807C0
F803C0
700380
ENDCHAR
STARTCHAR Aacute
ENCODING 193
SWIDTH 765 0
DWIDTH 18 0
BBX 18 23 0 0
BITMAP
007800
01F800
03F800
01E000
010000
004000
01E000
01F000
03F000
03F000
07F800
07F800
0FFC00
0FBC00
1F3E00
1F1E00
3FFF00
3FFF00
7FFF80
7C0780
7807C0
F803C0
700380
ENDCHAR
STARTCHAR Acircumflex
ENCODING 194
SWIDTH 765 0
DWIDTH 18 0
BBX 18 23 0 0
BITMAP
03F000
0FFC00
0FFC00
073800
000000
004000
01E000
01F000
03F000
03F000
07F800
07F800
0FFC00
0FBC00
1F3E00
1F1E00
3FFF00
3FFF00
7FFF80
7C0780
7807C0
F803C0
700380
ENDCHAR
STARTCHAR Atilde
ENCODING 195
SWIDTH 765 0
DWIDTH 18 0
BBX 18 23 0 0
BITMAP
03DC00
07FC00
0FF800
067000
000000
004000
01E000
01F000
03F000
03F000
07F800
07F800
0FFC00
0FBC00
1F3E00
1F1E00
3FFF00
3FFF00
7FFF80
7C0780
7807C0
F803C0
700380
ENDCHAR
STARTCHAR Adieresis
ENCODING 196
SWIDTH 765 0
DWIDTH 18 0
BBX 18 23 0 0
BITMAP
0F3C00
0F3E00
0F3E00
0F1C00
000000
004000
01E000
01F000
03F000
03F000
07F800
07F800
0FFC00
0FBC00
1F3E00
1F1E00
3FFF00
3FFF00
7FFF80
7C0780
7807C0
F803C0
700380
ENDCHAR
STARTCHAR Aring
ENCODING 197
SWIDTH 765 0
DWIDTH 18 0
BBX 18 22 0 0
BITMAP
01E000
03F000
031000
031000
03F000
01E000
01F000
03F000
03F000
07F800
07F800
0FFC00
0FBC00
1F3E00
1F1E00
3FFF00
3FFF00
7FFF80
7C0780
7807C0
F803C0
700380
ENDCHAR
STARTCHAR AE
ENCODING 198
SWIDTH 1148 0
DWIDTH 28 0
BBX 27 18 0 0
BITMAP
0003FFC0
000FFFE0
000FFFE0
001FFFE0
003FFFC0
007FC000
00FFC000
01FFFF00
03F7FF00
07E7FF00
0FC7FF00
1FFFC000
3FFFC000
3FFFC000
7C07FFE0
F807FFE0
F807FFE0
7003FFE0
ENDCHAR
STARTCHAR Ccedilla
ENCODING 199
SWIDTH 679 0
DWIDTH 16 0
BBX 15 23 1 -5
BITMAP
03E0
0FF8
1FFC
7FFE
7F7C
FC08
F800
F000
F000
F000
F000
F000
F800
7E1C
7FFC
3FFE
1FFC
07F0
03C0
01E0
0160
03E0
0180
ENDCHAR
STARTCHAR Egrave
ENCODING 200
SWIDTH 638 0
DWIDTH 15 0
BBX 14 23 1 0
BITMAP
0E00
0FC0
1FE0
07C0
00C0
3FF8
FFFC
FFFC
FFFC
FFF8
F000
F000
FFE0
FFE0
FFE0
FFE0
F000
F000
F000
FFF8
FFFC
FFFC
FFF8
ENDCHAR
STARTCHAR Eacute
ENCODING 201
SWIDTH 638 0
DWIDTH 15 0
BBX 14 23 1 0
BITMAP
01C0
0FE0
0FE0
0F80
0400
3FF8
FFFC
FFFC
FFFC
FFF8
F000
F000
FFE0
FFE0
FFE0
FFE0
F000
F000
F000
FFF8
FFFC
FFFC
FFF8
ENDCHAR
STARTCHAR Ecircumflex
ENCODING 202
SWIDTH 638 0
DWIDTH 15 0
BBX 14 23 1 0
BITMAP
0FC0
3FF0
3FE0
1CE0
0000
3FF8
FFFC
FFFC
FFFC
FFF8
F000
F000
FFE0
FFE0
FFE0
FFE0
F000
F000
F000
FFF8
FFFC
FFFC
FFF8
ENDCHAR
STARTCHAR Edieresis
ENCODING 203
SWIDTH 638 0
DWIDTH 15 0
BBX 14 23 1 0
BITMAP
3CF0
3CF0
3CF0
38F0
0000
3FF8
FFFC
FFFC
FFFC
FFF8
F000
F000
FFE0
FFE0
FFE0
FFE0
F000
F000
F000
FFF8
FFFC
FFFC
FFF8
ENDCHAR
STARTCHAR Igrave
ENCODING 204
SWIDTH 267 0
DWIDTH 6 0
BBX 7 23 -1 0
BITMAP
E0
FC
FE
7E
0C
08
3C
3C
3C
3C
3C
3C
3C
3C
3C
3C
3C
3C
3C
3C
3C
3C
3C
ENDCHAR
STARTCHAR Iacute
ENCODING 205
SWIDTH 269 0
DWIDTH 6 0
BBX 7 23 1 0
BITMAP
3C
FE
FE
F0
80
20
F0
F0
F0
F0
F0
F0
F0
F0
F0
F0
F0
F0
F0
F0
F0
F0
F0
ENDCHAR
STARTCHAR Icircumflex
ENCODING 206
SWIDTH 270 0
DWIDTH 6 0
BBX 10 23 -2 0
BITMAP
3F00
FFC0
7FC0
7380
0000
0400
1E00
1E00
1E00
1E00
1E00
1E00
1E00
1E00
1E00
1E00
1E00
1E00
1E00
1E00
1E00
1E00
1E00
ENDCHAR
STARTCHAR Idieresis
ENCODING 207
SWIDTH 268 0
DWIDTH 6 0
BBX 11 23 -2 0
BITMAP
F1C0
F3E0
F3E0
F1C0
0000
0400
1E00
1E00
1E00
1E00
1E00
1E00
1E00
1E00
1E00
1E00
1E00
1E00
1E00
1E00
1E00
1E00
1E00
ENDCHAR
STARTCHAR Eth
ENCODING 208
SWIDTH 775 0
DWIDTH 19 0
BBX 17 18 1 0
BITMAP
1F8000
3FF000
3FFC00
3FFE00
3FFF00
3C1F00
3C0F80
3C0F80
FF0780
FF0780
FF0780
3C0F80
3C1F00
3C7F00
3FFE00
3FFC00
3FF800
3FE000
ENDCHAR
STARTCHAR Ntilde
ENCODING 209
SWIDTH 720 0
DWIDTH 17 0
BBX 15 23 1 0
BITMAP
0F30
1FF0
1FF0
09E0
0000
200C
F01E
F81E
FC1E
FE1E
FE1E
FF1E
FF9E
F7DE
F7DE
F3FE
F1FE
F0FE
F0FE
F07E
F03E
F01E
F01E
ENDCHAR
STARTCHAR Ograve
ENCODING 210
SWIDTH 775 0
DWIDTH 19 0
BBX 17 23 1 0
BITMAP
070000
0FE000
0FE000
07E000
006000
03C000
0FF800
3FFC00
3FFE00
7F7F00
FC1F00
F80F80
F00F80
F00780
F00780
F00780
F00F80
F80F00
7C3F00
7FFE00
3FFE00
1FFC00
07F000
ENDCHAR
STARTCHAR Oacute
ENCODING 211
SWIDTH 775 0
DWIDTH 19 0
BBX 17 23 1 0
BITMAP
00F000
07F000
07F000
03C000
020000
03C000
0FF800
3FFC00
3FFE00
7F7F00
FC1F00
F80F80
F00F80
F00780
F00780
F00780
F00F80
F80F00
7C3F00
7FFE00
3FFE00
1FFC00
07F000
ENDCHAR
STARTCHAR Ocircumflex
ENCODING 212
SWIDTH 775 0
DWIDTH 19 0
BBX 17 23 1 0
BITMAP
07E000
0FF800
0FF800
0E7800
000000
03C000
0FF800
3FFC00
3FFE00
7F7F00
FC1F00
F80F80
F00F80
F00780
F00780
F00780
F00F80
F80F00
7C3F00
7FFE00
3FFE00
1FFC00
07F000
ENDCHAR
STARTCHAR Otilde
ENCODING 213
SWIDTH 775 0
DWIDTH 19 0
BBX 17 23 1 0
BITMAP
07D800
0FFC00
0FF800
067000
000000
03C000
0FF800
3FFC00
3FFE00
7F7F00
FC1F00
F80F80
F00F80
F00780
F00780
F00780
F00F80
F80F00
7C3F00
7FFE00
3FFE00
1FFC00
07F000
ENDCHAR
STARTCHAR Odieresis
ENCODING 214
SWIDTH 775 0
DWIDTH 19 0
BBX 17 23 1 0
BITMAP
1E7800
1E7C00
1E7C00
1E3800
000000
03C000
0FF800
3FFC00
3FFE00
7F7F00
FC1F00
F80F80
F00F80
F00780
F00780
F00780
F00F80
F80F00
7C3F00
7FFE00
3FFE00
1FFC00
07F000
ENDCHAR
STARTCHAR multiply
ENCODING 215
SWIDTH 521 0
DWIDTH 13 0
BBX 11 11 1 1
BITMAP
60C0
F1E0
FBE0
FFC0
7F80
3F00
3F80
7FC0
FFE0
F3E0
E1C0
ENDCHAR
STARTCHAR Oslash
ENCODING 216
SWIDTH 775 0
DWIDTH 19 0
BBX 17 20 1 -1
BITMAP
001800
03FC00
0FFC00
3FFC00
3FFE00
7F7F00
FCFF00
F8FF80
F1FF80
F1E780
F3E780
F3C780
F7CF80
FF8F00
7FBF00
7FFE00
3FFE00
1FFC00
1FF000
1C0000
ENDCHAR
STARTCHAR Ugrave
ENCODING 217
SWIDTH 726 0
DWIDTH 17 0
BBX 15 23 1 0
BITMAP
1C00
1F80
1FC0
0FC0
0180
600C
F01E
F01E
F01E
F01E
F01E
F01E
F01E
F01E
F01E
F01E
F81E
F83E
7C3E
7FFC
3FFC
1FF8
0FE0
ENDCHAR
STARTCHAR Uacute
ENCODING 218
SWIDTH 726 0
DWIDTH 17 0
BBX 15 23 1 0
BITMAP
00F0
07F0
07F0
03C0
0200
600C
F01E
F01E
F01E
F01E
F01E
F01E
F01E
F01E
F01E
F01E
F81E
F83E
7C3E
7FFC
3FFC
1FF8
0FE0
ENDCHAR
STARTCHAR Ucircumflex
ENCODING 219
SWIDTH 726 0
DWIDTH 17 0
BBX 15 23 1 0
BITMAP
07E0
1FF8
1FF8
0E70
0000
600C
F01E
F01E
F01E
F01E
F01E
F01E
F01E
F01E
F01E
F01E
F81E
F83E
7C3E
7FFC
3FFC
1FF8
0FE0
ENDCHAR
STARTCHAR Udieresis
ENCODING 220
SWIDTH 726 0
DWIDTH 17 0
BBX 15 23 1 0
BITMAP
1C78
3E78
3E78
1C78
0000
600C
F01E
F01E
F01E
F01E
F01E
F01E
F01E
F01E
F01E
F01E
F81E
F83E
7C3E
7FFC
3FFC
1FF8
0FE0
ENDCHAR
STARTCHAR Yacute
ENCODING 221
SWIDTH 686 0
DWIDTH 16 0
BBX 16 23 0 0
BITMAP
00F0
07F0
07F0
07C0
0200
3004
780F
F81F
7C1F
3C3E
3E7C
1F7C
0FF8
0FF0
07F0
03E0
03C0
03C0
03C0
03C0
03C0
03C0
03C0
ENDCHAR
STARTCHAR Thorn
ENCODING 222
SWIDTH 634 0
DWIDTH 15 0
BBX 14 18 1 0
BITMAP
6000
F000
F000
FFC0
FFF0
FFF0
FFF8
F0F8
F07C
F07C
F078
FFF8
FFF8
FFF0
FFE0
FF00
F000
F000
ENDCHAR
STARTCHAR germandbls
ENCODING 223
SWIDTH 633 0
DWIDTH 15 0
BBX 14 19 1 -1
BITMAP
1FC0
7FE0
FFE0
FFE0
F1E0
F1E0
F3C0
F3C0
F3C0
F3E0
F1F0
F0F8
F078
F03C
F3FC
F7F8
F7F8
F3F0
6000
ENDCHAR
STARTCHAR agrave
ENCODING 224
SWIDTH 596 0
DWIDTH 14 0
BBX 12 19 1 0
BITMAP
0800
1F00
1FC0
1FC0
03C0
0000
0460
3FF0
7FF0
FFF0
FFF0
F0F0
F0F0
F0F0
F9F0
FFF0
7FF0
3FF0
1E70
ENDCHAR
STARTCHAR aacute
ENCODING 225
SWIDTH 596 0
DWIDTH 14 0
BBX 12 19 1 0
BITMAP
0080
07C0
1FC0
1FC0
0E00
0000
0460
3FF0
7FF0
FFF0
FFF0
F0F0
F0F0
F0F0
F9F0
FFF0
7FF0
3FF0
1E70
ENDCHAR
STARTCHAR acircumflex
ENCODING 226
SWIDTH 596 0
DWIDTH 14 0
BBX 12 19 1 0
BITMAP
0200
1FC0
3FF0
3FE0
18E0
0000
0460
3FF0
7FF0
FFF0
FFF0
F0F0
F0F0
F0F0
F9F0
FFF0
7FF0
3FF0
1E70
ENDCHAR
STARTCHAR atilde
ENCODING 227
SWIDTH 596 0
DWIDTH 14 0
BBX 12 19 1 0
BITMAP
0440
1FE0
3FF0
3FE0
11C0
0000
0460
3FF0
7FF0
FFF0
FFF0
F0F0
F0F0
F0F0
F9F0
FFF0
7FF0
3FF0
1E70
ENDCHAR
STARTCHAR adieresis
ENCODING 228
SWIDTH 596 0
DWIDTH 14 0
BBX 12 19 1 0
BITMAP
1060
3CF0
7CF0
7CF0
3860
0000
0460
3FF0
7FF0
FFF0
FFF0
F0F0
F0F0
F0F0
F9F0
FFF0
7FF0
3FF0
1E70
ENDCHAR
STARTCHAR aring
ENCODING 229
SWIDTH 596 0
DWIDTH 14 0
BBX 12 18 1 0
BITMAP
0700
0480
0C80
0780
0300
0460
3FF0
7FF0
FFF0
FFF0
F0F0
F0F0
F0F0
F9F0
FFF0
7FF0
3FF0
1E70
ENDCHAR
STARTCHAR ae
ENCODING 230
SWIDTH 910 0
DWIDTH 22 0
BBX 20 13 1 0
BITMAP
1E0700
7FBFC0
FFFFE0
FFFFF0
71F8F0
21F0F0
3CFFF0
FFFFE0
FFF000
E0FDE0
FFFFF0
FFBFF0
7F1FC0
ENDCHAR
STARTCHAR ccedilla
ENCODING 231
SWIDTH 524 0
DWIDTH 13 0
BBX 11 18 1 -5
BITMAP
0F00
3FC0
7FE0
FFE0
FFC0
F000
F000
F000
F9C0
FFE0
7FE0
3FE0
1F80
0F00
0F80
0F00
0F00
0400
ENDCHAR
STARTCHAR egrave
ENCODING 232
SWIDTH 573 0
DWIDTH 14 0
BBX 12 19 1 0
BITMAP
1000
1E00
3F80
1F80
0780
0000
0F80
3FE0
7FE0
FFF0
F8F0
F0F0
FFF0
FFE0
F000
FCE0
7FE0
7FF0
1FE0
ENDCHAR
STARTCHAR eacute
ENCODING 233
SWIDTH 573 0
DWIDTH 14 0
BBX 12 19 1 0
BITMAP
0080
07C0
1FC0
1FC0
1E00
0000
0F80
3FE0
7FE0
FFF0
F8F0
F0F0
FFF0
FFE0
F000
FCE0
7FE0
7FF0
1FE0
ENDCHAR
STARTCHAR ecircumflex
ENCODING 234
SWIDTH 573 0
DWIDTH 14 0
BBX 12 19 1 0
BITMAP
0200
1FC0
7FE0
7FE0
38C0
0000
0F80
3FE0
7FE0
FFF0
F8F0
F0F0
FFF0
FFE0
F000
FCE0
7FE0
7FF0
1FE0
ENDCHAR
STARTCHAR edieresis
ENCODING 235
SWIDTH 573 0
DWIDTH 14 0
BBX 12 19 1 0
BITMAP
20C0
79E0
79E0
79E0
70E0
0000
0F80
3FE0
7FE0
FFF0
F8F0
F0F0
FFF0
FFE0
F000
FCE0
7FE0
7FF0
1FE0
ENDCHAR
STARTCHAR igrave
ENCODING 236
SWIDTH 255 0
DWIDTH 6 0
BBX 7 19 -1 0
BITMAP
40
F8
FE
FE
1E
00
18
3C
3C
3C
3C
3C
3C
3C
3C
3C
3C
3C
3C
ENDCHAR
STARTCHAR iacute
ENCODING 237
SWIDTH 255 0
DWIDTH 6 0
BBX 7 19 0 0
BITMAP
04
3E
FE
FE
78
00
30
78
78
78
78
78
78
78
78
78
78
78
78
ENDCHAR
STARTCHAR icircumflex
ENCODING 238
SWIDTH 255 0
DWIDTH 6 0
BBX 10 19 -2 0
BITMAP
0400
3F80
FFC0
FFC0
7180
0000
0C00
1E00
1E00
1E00
1E00
1E00
1E00
1E00
1E00
1E00
1E00
1E00
1E00
ENDCHAR
STARTCHAR idieresis
ENCODING 239
SWIDTH 255 0
DWIDTH 6 0
BBX 10 19 -2 0
BITMAP
4080
F3C0
F3C0
F3C0
E1C0
0000
0C00
1E00
1E00
1E00
1E00
1E00
1E00
1E00
1E00
1E00
1E00
1E00
1E00
ENDCHAR
STARTCHAR eth
ENCODING 240
SWIDTH 585 0
DWIDTH 14 0
BBX 12 19 1 0
BITMAP
0380
1F00
1F00
1F80
1FC0
19E0
00E0
1F70
7FF0
7FF0
FFF0
F0F0
F0F0
F0F0
F0F0
FFF0
7FE0
3FC0
1F80
ENDCHAR
STARTCHAR ntilde
ENCODING 241
SWIDTH 606 0
DWIDTH 15 0
BBX 13 19 1 0
BITMAP
0C40
3EE0
3FE0
3FC0
1380
0000
6300
FFC0
FFE0
FFF0
FFF0
F8F0
F0F8
F0F8
F0F8
F0F8
F0F8
F0F8
F070
ENDCHAR
STARTCHAR ograve
ENCODING 242
SWIDTH 600 0
DWIDTH 14 0
BBX 13 19 1 0
BITMAP
0800
1F00
1FC0
1FC0
0780
0000
0F80
3FC0
7FE0
FFF0
F9F0
F0F8
F078
F0F8
F8F8
FFF0
7FF0
3FE0
1F80
ENDCHAR
STARTCHAR oacute
ENCODING 243
SWIDTH 600 0
DWIDTH 14 0
BBX 13 19 1 0
BITMAP
0080
07C0
1FC0
1FC0
0E00
0000
0F80
3FC0
7FE0
FFF0
F9F0
F0F8
F078
F0F8
F8F8
FFF0
7FF0
3FE0
1F80
ENDCHAR
STARTCHAR ocircumflex
ENCODING 244
SWIDTH 600 0
DWIDTH 14 0
BBX 13 19 1 0
BITMAP
0200
1FC0
7FE0
3FE0
38C0
0000
0F80
3FC0
7FE0
FFF0
F9F0
F0F8
F078
F0F8
F8F8
FFF0
7FF0
3FE0
1F80
ENDCHAR
STARTCHAR otilde
ENCODING 245
SWIDTH 600 0
DWIDTH 14 0
BBX 13 19 1 0
BITMAP
0840
3EE0
3FE0
7FC0
1380
0000
0F80
3FC0
7FE0
FFF0
F9F0
F0F8
F078
F0F8
F8F8
FFF0
7FF0
3FE0
1F80
ENDCHAR
STARTCHAR odieresis
ENCODING 246
SWIDTH 600 0
DWIDTH 14 0
BBX 13 19 1 0
BITMAP
2040
79E0
79E0
79E0
70E0
0000
0F80
3FC0
7FE0
FFF0
F9F0
F0F8
F078
F0F8
F8F8
FFF0
7FF0
3FE0
1F80
ENDCHAR
STARTCHAR divide
ENCODING 247
SWIDTH 503 0
DWIDTH 12 0
BBX 10 13 1 0
BITMAP
1E00
1E00
1E00
0C00
0000
FFC0
FFC0
FFC0
0000
0E00
1E00
1E00
1E00
ENDCHAR
STARTCHAR oslash
ENCODING 248
SWIDTH 600 0
DWIDTH 14 0
BBX 13 20 1 -4
BITMAP
00F0
00F0
01F0
0FE0
3FE0
7FE0
FFF0
F9F0
F0F8
F078
F0F8
F8F8
FFF0
7FF0
3FE0
7F80
7800
F800
F000
2000
ENDCHAR
STARTCHAR ugrave
ENCODING 249
SWIDTH 606 0
DWIDTH 15 0
BBX 13 19 1 0
BITMAP
0800
1F00
1FC0
1FC0
0780
0000
6070
F0F8
F0F8
F0F8
F0F8
F0F8
F0F8
F0F8
F9F8
FFF8
7FF8
3FF8
1E70
ENDCHAR
STARTCHAR uacute
ENCODING 250
SWIDTH 606 0
DWIDTH 15 0
BBX 13 19 1 0
BITMAP
0040
03C0
0FE0
0FC0
0F00
0000
6070
F0F8
F0F8
F0F8
F0F8
F0F8
F0F8
F0F8
F9F8
FFF8
7FF8
3FF8
1E70
ENDCHAR
STARTCHAR ucircumflex
ENCODING 251
SWIDTH 606 0
DWIDTH 15 0
BBX 13 19 1 0
BITMAP
0200
1FC0
3FE0
3FE0
38C0
0000
6070
F0F8
F0F8
F0F8
F0F8
F0F8
F0F8
F0F8
F9F8
FFF8
7FF8
3FF8
1E70
ENDCHAR
STARTCHAR udieresis
ENCODING 252
SWIDTH 606 0
DWIDTH 15 0
BBX 13 19 1 0
BITMAP
2040
79E0
79F0
79F0
30E0
0000
6070
F0F8
F0F8
F0F8
F0F8
F0F8
F0F8
F0F8
F9F8
FFF8
7FF8
3FF8
1E70
ENDCHAR
STARTCHAR yacute
ENCODING 253
SWIDTH 604 0
DWIDTH 15 0
BBX 14 25 0 -6
BITMAP
0020
01E0
07F0
07E0
0780
0000
3018
783C
F83C
7C7C
3C78
3EF8
1FF0
1FF0
0FE0
07E0
07E0
03C0
07C0
0780
0F80
0F00
1F00
0E00
0600
ENDCHAR
STARTCHAR thorn
ENCODING 254
SWIDTH 580 0
DWIDTH 14 0
BBX 12 24 1 -5
BITMAP
E000
F000
F000
F000
F000
F000
F200
FFC0
FFE0
FFE0
FFF0
F0F0
F0F0
F0F0
F9F0
FFF0
FFE0
FFC0
F780
F000
F000
F000
F000
F000
ENDCHAR
STARTCHAR ydieresis
ENCODING 255
SWIDTH 604 0
DWIDTH 15 0
BBX 14 25 0 -6
BITMAP
0820
3C78
3C78
3C78
1C70
0000
3018
783C
F83C
7C7C
3C78
3EF8
1FF0
1FF0
0FE0
07E0
07E0
03C0
07C0
0780
0F80
0F00
1F00
0E00
0600
ENDCHAR
STARTCHAR dotlessi
ENCODING 305
SWIDTH 255 0
DWIDTH 6 0
BBX 4 13 1 0
BITMAP
60
F0
F0
F0
F0
F0
F0
F0
F0
F0
F0
F0
F0
ENDCHAR
STARTCHAR Lslash
ENCODING 321
SWIDTH 687 0
DWIDTH 16 0
BBX 15 18 1 0
BITMAP
0800
3E00
3E00
3E00
3E00
3E00
3FC0
3FC0
FFC0
FF00
FE00
3E00
3E00
3E00
3FF8
3FFE
3FFE
1FFE
ENDCHAR
STARTCHAR lslash
ENCODING 322
SWIDTH 468 0
DWIDTH 11 0
BBX 11 19 0 0
BITMAP
0400
1E00
1E00
1E00
1E00
1E00
1E00
1EC0
1FE0
7FE0
FF00
7E00
1E00
1E00
1E00
1F80
1FC0
0FC0
0780
ENDCHAR
STARTCHAR OE
ENCODING 338
SWIDTH 1092 0
DWIDTH 26 0
BBX 25 18 1 0
BITMAP
01FFFF00
0FFFFF00
1FFFFF80
3FFFFF80
7FFFFF00
FC1E0000
F81E0000
F01FFC00
F01FFC00
F01FFC00
F01FFC00
F01E0000
F81E0000
7E1E0000
7FFFFF00
3FFFFF80
1FFFFF80
07FFFF00
ENDCHAR
STARTCHAR oe
ENCODING 339
SWIDTH 944 0
DWIDTH 23 0
BBX 21 13 1 0
BITMAP
0F0380
3FDFE0
7FFFF0
FFFFF8
F9FC78
F0F878
F0FFF8
F0FFF0
F8F800
FFFEF0
7FFFF0
3FFFF0
1F8FE0
ENDCHAR
STARTCHAR Scaron
ENCODING 352
SWIDTH 583 0
DWIDTH 14 0
BBX 12 23 1 0
BITMAP
39C0
7FE0
7FE0
0F00
0000
1F00
3FC0
7FE0
FFE0
F9E0
F000
F800
FF00
7FE0
3FF0
0FF0
01F0
60F0
F0F0
FFF0
FFF0
7FE0
1F80
ENDCHAR
STARTCHAR scaron
ENCODING 353
SWIDTH 489 0
DWIDTH 12 0
BBX 10 19 1 0
BITMAP
4100
F780
FF80
FF80
1C00
0000
3F00
7FC0
FF80
FB80
F000
FF00
7F80
3FC0
0FC0
F3C0
FFC0
FF80
7F00
ENDCHAR
STARTCHAR Ydieresis
ENCODING 376
SWIDTH 686 0
DWIDTH 16 0
BBX 16 23 0 0
BITMAP
1E78
1E7C
1E7C
1E38
0000
3004
780F
F81F
7C1F
3C3E
3E7C
1F7C
0FF8
0FF0
07F0
03E0
03C0
03C0
03C0
03C0
03C0
03C0
03C0
ENDCHAR
STARTCHAR Zcaron
ENCODING 381
SWIDTH 643 0
DWIDTH 15 0
BBX 14 23 1 0
BITMAP
3DE0
3FF0
3FE0
0F80
0000
7FF0
FFF8
FFFC
FFF8
7FF8
01F0
03E0
07C0
0FC0
0F80
1F00
3F00
3E00
7C00
FFF8
FFFC
FFFC
FFF8
ENDCHAR
STARTCHAR zcaron
ENCODING 382
SWIDTH 586 0
DWIDTH 14 0
BBX 12 19 1 0
BITMAP
1040
3FE0
7FE0
3FE0
0F00
0000
7FE0
FFF0
FFF0
FFF0
3FE0
07C0
1F80
3F00
7E00
FFF0
FFF0
FFF0
FFF0
ENDCHAR
STARTCHAR florin
ENCODING 402
SWIDTH 529 0
DWIDTH 13 0
BBX 12 23 0 -5
BITMAP
0070
01F0
03F0
07F0
0780
0780
1FF0
3FF0
3FF0
3FF0
0F00
0F00
0F00
0F00
0F00
0F00
0F00
1F00
1F00
3E00
FE00
FC00
F800
ENDCHAR
STARTCHAR circumflex
ENCODING 710
SWIDTH 603 0
DWIDTH 14 0
BBX 10 5 2 14
BITMAP
0400
3F80
FFC0
7FC0
7180
ENDCHAR
STARTCHAR caron
ENCODING 711
SWIDTH 600 0
DWIDTH 14 0
BBX 10 5 2 14
BITMAP
2080
7FC0
FFC0
7FC0
1E00
ENDCHAR
STARTCHAR dotaccent
ENCODING 729
SWIDTH 285 0
DWIDTH 7 0
BBX 5 4 1 17
BITMAP
70
F8
F8
70
ENDCHAR
STARTCHAR ring
ENCODING 730
SWIDTH 378 0
DWIDTH 9 0
BBX 7 6 1 16
BITMAP
38
7C
C6
C6
7C
38
ENDCHAR
STARTCHAR ogonek
ENCODING 731
SWIDTH 570 0
DWIDTH 14 0
BBX 5 6 4 -5
BITMAP
30
78
F0
F0
78
20
ENDCHAR
STARTCHAR tilde
ENCODING 732
SWIDTH 584 0
DWIDTH 14 0
BBX 9 5 2 14
BITMAP
1100
7F80
FF80
FF80
4600
ENDCHAR
STARTCHAR endash
ENCODING 8211
SWIDTH 561 0
DWIDTH 13 0
BBX 13 4 0 5
BITMAP
3FE0
FFF8
FFF8
FFF8
ENDCHAR
STARTCHAR emdash
ENCODING 8212
SWIDTH 693 0
DWIDTH 17 0
BBX 16 4 0 5
BITMAP
3FFE
FFFF
FFFF
FFFF
ENDCHAR
STARTCHAR quoteleft
ENCODING 8216
SWIDTH 237 0
DWIDTH 6 0
BBX 4 9 1 9
BITMAP
10
70
E0
E0
E0
F0
F0
F0
60
ENDCHAR
STARTCHAR quoteright
ENCODING 8217
SWIDTH 237 0
DWIDTH 6 0
BBX 4 9 1 9
BITMAP
60
F0
F0
F0
F0
70
60
E0
80
ENDCHAR
STARTCHAR quotesinglbase
ENCODING 8218
SWIDTH 237 0
DWIDTH 6 0
BBX 4 8 1 -4
BITMAP
F0
F0
F0
F0
70
60
E0
C0
ENDCHAR
STARTCHAR quotedblleft
ENCODING 8220
SWIDTH 482 0
DWIDTH 12 0
BBX 10 9 1 9
BITMAP
1040
71C0
E380
E300
E380
F7C0
F7C0
F3C0
6180
ENDCHAR
STARTCHAR quotedblright
ENCODING 8221
SWIDTH 482 0
DWIDTH 12 0
BBX 10 9 1 9
BITMAP
6100
F3C0
F7C0
F7C0
F3C0
71C0
6180
E700
8200
ENDCHAR
STARTCHAR quotedblbase
ENCODING 8222
SWIDTH 482 0
DWIDTH 12 0
BBX 10 8 1 -4
BITMAP
F3C0
F7C0
F7C0
F3C0
71C0
6180
E780
C200
ENDCHAR
STARTCHAR dagger
ENCODING 8224
SWIDTH 527 0
DWIDTH 13 0
BBX 12 23 0 -5
BITMAP
0700
0F00
0F00
0F00
0F00
0F00
7FF0
FFF0
FFF0
2F20
0F00
0F00
0F00
0F00
0F00
0F00
0F00
0F00
0F00
0F00
0F00
0F00
0200
ENDCHAR
STARTCHAR daggerdbl
ENCODING 8225
SWIDTH 527 0
DWIDTH 13 0
BBX 12 23 0 -5
BITMAP
0700
0F00
0F00
0F00
0F00
0F00
7FF0
FFF0
FFF0
2F20
0F00
0F00
0F00
7FF0
FFF0
FFF0
7FF0
0F00
0F00
0F00
0F00
0F00
0200
ENDCHAR
STARTCHAR bullet
ENCODING 8226
SWIDTH 342 0
DWIDTH 8 0
BBX 7 7 1 4
BITMAP
78
FC
FE
FE
FE
FC
78
ENDCHAR
STARTCHAR ellipsis
ENCODING 8230
SWIDTH 911 0
DWIDTH 22 0
BBX 20 4 1 0
BITMAP
F0F0F0
F0F0F0
F0F0F0
F0F0F0
ENDCHAR
STARTCHAR perthousand
ENCODING 8240
SWIDTH 1223 0
DWIDTH 29 0
BBX 27 20 1 -1
BITMAP
00040000
180E0000
7E0C0000
FF1C0000
E7180000
E7380000
E7300000
FF700000
7E600000
7EC00000
00CF0780
019F8FE0
01BFCFE0
0339DC60
0738DC60
0639DC60
0E3FCFE0
0C1F8FE0
1C0F07C0
08000000
ENDCHAR
STARTCHAR guilsinglleft
ENCODING 8249
SWIDTH 383 0
DWIDTH 9 0
BBX 9 13 0 0
BITMAP
0200
0700
0F80
1F00
3E00
7C00
F800
7C00
7E00
3F00
1F80
0780
0300
ENDCHAR
STARTCHAR guilsinglright
ENCODING 8250
SWIDTH 383 0
DWIDTH 9 0
BBX 9 13 0 0
BITMAP
2000
7000
F800
7C00
3E00
1F00
0F80
1F80
3F00
7E00
FC00
7800
3000
ENDCHAR
STARTCHAR fraction
ENCODING 8260
SWIDTH 433 0
DWIDTH 10 0
BBX 11 20 1 -1
BITMAP
0020
0060
00E0
00C0
01C0
0180
0380
0300
0700
0600
0E00
0C00
1C00
1800
3000
3000
6000
6000
C000
4000
ENDCHAR
STARTCHAR Euro
ENCODING 8364
SWIDTH 612 0
DWIDTH 15 0
BBX 14 18 0 0
BITMAP
03FC
0FFC
0FFC
1FF8
1E00
3FF0
FFF8
FFF8
3C00
7FF0
FFF8
FFF8
1E00
1F00
1FFC
0FFC
07FC
01FC
ENDCHAR
STARTCHAR trademark
ENCODING 8482
SWIDTH 840 0
DWIDTH 20 0
BBX 19 9 0 6
BITMAP
FFB8E0
FFB8E0
7F3DE0
1C3FE0
1C3FE0
1C3FE0
1C3FE0
1C38E0
1C38E0
ENDCHAR
STARTCHAR minus
ENCODING 8722
SWIDTH 581 0
DWIDTH 14 0
BBX 12 4 1 5
BITMAP
7FE0
FFF0
FFF0
FFF0
ENDCHAR
STARTCHAR f_f
ENCODING 64256
SWIDTH 803 0
DWIDTH 19 0
BBX 19 19 0 0
BITMAP
018180
0FC7C0
1FCFC0
1FDFC0
1F1F80
1E1E00
7FFFC0
FFFFE0
FFFFE0
FFFFE0
7FFE80
1E1E00
1E1E00
1E1E00
1E1E00
1E1E00
1E1E00
1E1E00
1C1E00
ENDCHAR
STARTCHAR fi
ENCODING 64257
SWIDTH 709 0
DWIDTH 17 0
BBX 16 19 0 0
BITMAP
0184
0FCF
1FCF
1FCF
1F86
1E00
1F84
FFCF
FFCF
FFCF
3F8F
1E0F
1E0F
1E0F
1E0F
1E0F
1E0F
1E0F
1C0F
ENDCHAR
STARTCHAR fl
ENCODING 64258
SWIDTH 774 0
DWIDTH 19 0
BBX 18 19 0 0
BITMAP
018600
0FCF00
1FCF00
1FCF00
1F8F00
1E0F00
1F8F00
FFCF00
FFCF00
FFCF00
3F8F00
1E0F00
1E0F00
1E0F00
1E0F00
1E0FC0
1E0FC0
1E0FC0
1C07C0
ENDCHAR
STARTCHAR f_f_i
ENCODING 64259
SWIDTH 1059 0
DWIDTH 25 0
BBX 24 19 0 0
BITMAP
018180
0FC7CF
1FCFCF
1FDFCF
1F1F87
1E1E00
7FFFC2
FFFFEF
FFFFEF
FFFFEF
7FFE8F
1E1E0F
1E1E0F
1E1E0F
1E1E0F
1E1E0F
1E1E0F
1E1E0F
1C1E07
ENDCHAR
STARTCHAR .notdef
ENCODING -1
SWIDTH 500 0
DWIDTH 12 0
BBX 1 1 0 0
BITMAP
00
ENDCHAR
STARTCHAR .null
ENCODING -1
SWIDTH 0 0
DWIDTH 0 0
BBX 1 1 0 0
BITMAP
00
ENDCHAR
STARTCHAR nonmarkingreturn
ENCODING -1
SWIDTH 333 0
DWIDTH 8 0
BBX 1 1 0 0
BITMAP
00
ENDCHAR
STARTCHAR f_t
ENCODING -1
SWIDTH 814 0
DWIDTH 20 0
BBX 19 19 0 0
BITMAP
018000
0FC000
1FCE00
1FDE00
1F1F00
1E1F00
7FFFC0
FFFFE0
FFFFE0
FFFFE0
7FFFC0
1E1F00
1E1F00
1E1F00
1E1F00
1E1FC0
1E0FE0
1E07E0
1C03C0
ENDCHAR
STARTCHAR t_t
ENCODING -1
SWIDTH 794 0
DWIDTH 19 0
BBX 19 17 0 0
BITMAP
1C1E00
1E1E00
1E1E00
1E1E00
7FFFC0
FFFFE0
FFFFE0
FFFFE0
7FFFC0
1E1E00
1E1E00
1E1E00
1E1E00
1F9FC0
1FDFC0
0FCFC0
0787C0
ENDCHAR
STARTCHAR l_l
ENCODING -1
SWIDTH 626 0
DWIDTH 15 0
BBX 14 19 1 0
BITMAP
6180
F3E0
F3E0
F3E0
F3E0
F3E0
F3E0
F3E0
F3E0
F3E0
F3E0
F3E0
F3E0
F3E0
F3E0
FDF8
FDFC
7CFC
3C78
ENDCHAR
STARTCHAR j_j
ENCODING -1
SWIDTH 521 0
DWIDTH 13 0
BBX 15 24 -3 -6
BITMAP
0F1C
0F3E
0F3C
061C
0000
0608
0F3C
0F3E
0F3E
0F3E
0F3E
0F3E
0F3E
0F3E
0F3E
0F3E
0F3E
0F3E
0F3C
7F7C
FEFC
FEFC
F8F8
4040
ENDCHAR
ENDFONT
